<svg width="72" height="72" viewBox="0 0 72 72" fill="none" xmlns="http://www.w3.org/2000/svg">
<path d="M13.1538 11V42.25C13.1538 43.9076 13.8103 45.4973 14.9788 46.6694C16.1473 47.8415 17.7321 48.5 19.3846 48.5H25.6154M13.1538 11H9M13.1538 11H58.8462M25.6154 48.5H46.3846M25.6154 48.5L22.8462 56.8333M58.8462 11H63M58.8462 11V42.25C58.8462 43.9076 58.1897 45.4973 57.0212 46.6694C55.8527 47.8415 54.2679 48.5 52.6154 48.5H46.3846M46.3846 48.5L49.1538 56.8333M22.8462 56.8333H49.1538M22.8462 56.8333L21.4615 61M49.1538 56.8333L50.5385 61M23.5385 36L31.8462 27.6667L37.7945 33.6333C40.5892 29.6092 44.2306 26.2495 48.4615 23.7917" stroke="#c89b42" stroke-width="5" stroke-linecap="round" stroke-linejoin="round"/>
</svg>
