<svg width="72" height="72" viewBox="0 0 72 72" fill="none" xmlns="http://www.w3.org/2000/svg">
<path d="M26.5333 21.1325V19.6936C26.5333 13.2441 36.2983 8.3877 49.2667 8.3877C62.235 8.3877 72 13.2441 72 19.6936V29.9717C72 35.3419 65.2317 39.6073 55.4667 40.8921V42.3053C55.4667 48.7548 45.7017 53.6112 32.7333 53.6112C19.765 53.6112 10 48.7548 10 42.3053V32.0273C10 26.7084 16.5617 22.443 26.5333 21.1325ZM14.1333 32.0273C14.1333 35.419 22.09 39.2219 32.7333 39.2219C33.6892 39.2219 34.645 39.1962 35.6008 39.1191C30.0208 37.1149 26.5333 33.8259 26.5333 29.9717V25.2694C18.8092 26.4257 14.1333 29.5348 14.1333 32.0273ZM55.4667 36.7038V30.614C53.4107 30.8768 51.3396 31.0056 49.2667 30.9995C47.1938 31.0056 45.1227 30.8768 43.0667 30.614V36.7038C45.1177 37.0217 47.1909 37.1763 49.2667 37.1663C51.3424 37.1763 53.4157 37.0217 55.4667 36.7038ZM30.6667 26.3486V29.9717C30.6667 32.13 33.87 34.4426 38.9333 35.8558V29.8432C35.6008 29.0466 32.785 27.839 30.6667 26.3486ZM49.2667 12.4989C38.6233 12.4989 30.6667 16.3018 30.6667 19.6936C30.6667 23.0853 38.6233 26.8882 49.2667 26.8882C59.91 26.8882 67.8667 23.0853 67.8667 19.6936C67.8667 16.3018 59.91 12.4989 49.2667 12.4989ZM67.8667 29.9717V26.3486C65.7483 27.839 62.9325 29.0466 59.6 29.8432V35.8558C64.6633 34.4426 67.8667 32.13 67.8667 29.9717ZM51.3333 42.3053V41.2261L49.2667 41.2775C48.2506 41.2775 47.2689 41.2518 46.3217 41.2004C45.2883 41.5602 44.2033 41.8685 43.0667 42.1512V48.1895C48.13 46.7763 51.3333 44.4637 51.3333 42.3053ZM38.9333 49.0375V42.922C36.8776 43.1903 34.8067 43.3276 32.7333 43.3331C30.6604 43.3393 28.5893 43.2105 26.5333 42.9477V49.0375C30.6434 49.6542 34.8232 49.6542 38.9333 49.0375ZM22.4 48.1895V42.1769C19.0675 41.3803 16.2517 40.1726 14.1333 38.6823V42.3053C14.1333 44.4637 17.3367 46.7763 22.4 48.1895Z" fill="#c89b42"/>
</svg>
