<svg width="72" height="72" viewBox="0 0 72 72" fill="none" xmlns="http://www.w3.org/2000/svg">
<path d="M8 54.146C23.3226 54.134 38.5785 56.086 53.3652 59.9506C58.2558 60.3484 58.8866 58.2763 60.3232 56.2043L63.2813 52.0601M12.3084 12V14.0721C12.3084 14.6216 12.0814 15.1487 11.6775 15.5373C11.2736 15.9258 10.7258 16.1441 10.1545 16.1441H8.00072M8.00072 16.1441V15.1081C8.00072 13.3924 9.44809 12 11.2315 12H59.6924M8.00072 16.1441V41.009M59.6924 12V14.0721C59.6924 15.2159 60.6573 16.1441 61.8462 16.1441H64M59.6924 12H60.7693C62.5526 12 64 13.3924 64 15.1081V42.0451C64 43.7608 62.5526 45.1532 60.7693 45.1532H59.6924M8.00072 41.009V42.0451C8.00072 42.8694 8.3411 43.66 8.94698 44.2428C9.55286 44.8257 10.3746 45.1532 11.2315 45.1532H12.3084M8.00072 41.009H10.1545C10.7258 41.009 11.2736 41.2274 11.6775 41.6159C12.0814 42.0045 12.3084 42.5316 12.3084 43.0811V45.1532M59.6924 45.1532V43.0811C59.6924 42.5316 59.9193 42.0045 60.3232 41.6159C60.7271 41.2274 61.275 41.009 61.8462 41.009H64M59.6924 45.1532H12.3084M44.6156 28.5766C44.6156 30.7748 43.708 32.883 42.0923 34.4373C40.4766 35.9917 38.2853 36.8649 36.0004 36.8649C33.7154 36.8649 31.5241 35.9917 29.9084 34.4373C28.2928 32.883 27.3851 30.7748 27.3851 28.5766C27.3851 26.3784 28.2928 24.2702 29.9084 22.7159C31.5241 21.1615 33.7154 20.2883 36.0004 20.2883C38.2853 20.2883 40.4766 21.1615 42.0923 22.7159C43.708 24.2702 44.6156 26.3784 44.6156 28.5766ZM53.2309 28.5766H53.2539V28.5987H53.2309V28.5766ZM18.7698 28.5766H18.7928V28.5987H18.7698V28.5766Z" stroke="#c89b42" stroke-width="5" stroke-linecap="round" stroke-linejoin="round"/>
</svg>
