<svg width="72" height="72" viewBox="0 0 72 72" fill="none" xmlns="http://www.w3.org/2000/svg">
<path d="M63 36.66C63 20.19 50.22 9 36 9C21.93 9 9 19.95 9 36.84C7.2 37.86 6 39.78 6 42V48C6 51.3 8.7 54 12 54H15V35.7C15 24.09 24.39 14.7 36 14.7C47.61 14.7 57 24.09 57 35.7V57H33V63H57C60.3 63 63 60.3 63 57V53.34C64.77 52.41 66 50.58 66 48.42V41.52C66 39.42 64.77 37.59 63 36.66Z" fill="#c89b42"/>
<path d="M27 42C28.6569 42 30 40.6569 30 39C30 37.3431 28.6569 36 27 36C25.3431 36 24 37.3431 24 39C24 40.6569 25.3431 42 27 42Z" fill="#c89b42"/>
<path d="M45 42C46.6569 42 48 40.6569 48 39C48 37.3431 46.6569 36 45 36C43.3431 36 42 37.3431 42 39C42 40.6569 43.3431 42 45 42Z" fill="#c89b42"/>
<path d="M54.0014 33.09C53.286 28.8724 51.1016 25.0439 47.8347 22.2821C44.5678 19.5204 40.4292 18.0035 36.1514 18C27.0614 18 17.2814 25.53 18.0614 37.35C21.7608 35.8362 25.0281 33.4305 27.5721 30.3474C30.116 27.2642 31.8575 23.5996 32.6414 19.68C36.5714 27.57 44.6414 33 54.0014 33.09Z" fill="#c89b42"/>
</svg>
